<svg width="20" height="20" viewBox="0 0 20 20" fill="none" xmlns="http://www.w3.org/2000/svg">
<path d="M16.6667 4.16667C16.6667 3.24545 17.4122 2.5 18.3334 2.5C19.2546 2.5 20.0001 3.24545 20.0001 4.16667C20.0001 5.08788 19.2546 5.83333 18.3334 5.83333C17.4122 5.83333 16.6667 5.08788 16.6667 4.16667Z" fill="black"/>
<path d="M16.6667 15.8333C16.6667 14.9121 17.4122 14.1667 18.3334 14.1667C19.2546 14.1667 20.0001 14.9121 20.0001 15.8333C20.0001 16.7545 19.2546 17.5 18.3334 17.5C17.4122 17.5 16.6667 16.7545 16.6667 15.8333Z" fill="black"/>
<path d="M16.6667 10C16.6667 9.07879 17.4122 8.33333 18.3334 8.33333C19.2546 8.33333 20.0001 9.07879 20.0001 10C20.0001 10.9212 19.2546 11.6667 18.3334 11.6667C17.4122 11.6667 16.6667 10.9212 16.6667 10Z" fill="black"/>
</svg>
