<svg width="78" height="35" viewBox="0 0 78 35" fill="none" xmlns="http://www.w3.org/2000/svg">
<g clip-path="url(#clip0_16483_3251)">
<mask id="mask0_16483_3251" style="mask-type:luminance" maskReservations="userSpaceOnUse" x="0" y="0" width="78" height="35">
<path d="M78 0H0V35H78V0Z" fill="white"/>
</mask>
<g mask="url(#mask0_16483_3251)">
<path d="M28.087 35.0001H20.4384L7.64855 16.081V35.0028H0V4.32617H7.64855L20.4384 23.3334V4.32617H28.087V35.0001Z" fill="#08092B"/>
<path d="M34.1928 7.57203C33.3439 6.72887 32.9181 5.68454 32.9181 4.44182C32.9181 3.1991 33.3439 2.10794 34.1928 1.26476C35.0417 0.421587 36.1388 0 37.4812 0C38.8237 0 39.8728 0.421587 40.7246 1.26476C41.5735 2.10794 41.9993 3.16879 41.9993 4.44182C41.9993 5.71486 41.5735 6.72887 40.7246 7.57203C39.8757 8.41523 38.7927 8.83681 37.4812 8.83681C36.1698 8.83681 35.0445 8.41523 34.1928 7.57203Z" fill="#4C4DDC"/>
<path d="M41.2801 10.6196H33.6316V35.0028H41.2801V10.6196Z" fill="#08092B"/>
<path d="M54.4735 2.66455V35H46.8248V2.66455H54.4735Z" fill="#08092B"/>
<path d="M67.176 28.8386H78V34.9999H58.633V29.0563L69.009 16.7779H58.7235V10.6167H77.777V16.5602L67.1785 28.8386H67.176Z" fill="#08092B"/>
</g>
</g>
<defs>
<clipPath id="clip0_16483_3251">
<rect width="78" height="35" fill="white"/>
</clipPath>
</defs>
</svg>
