<svg width="48" height="48" viewBox="0 0 48 48" fill="none" xmlns="http://www.w3.org/2000/svg">
<circle cx="24" cy="24" r="24" fill="#FF3B30" fill-opacity="0.1"/>
<path d="M33.9382 35.0203L31.307 30.3004L29.7114 27.4361L29.5737 27.1861L29.5292 27.1071C29.2892 26.686 28.9381 26.3965 28.5425 26.2386C28.2981 26.1465 28.0403 26.0982 27.7825 26.0982C27.6047 26.0982 27.4314 26.1202 27.2581 26.164C27.2536 26.164 27.2492 26.1684 27.2403 26.1684C27.2314 26.1728 27.2225 26.1772 27.2136 26.1772C27.1425 26.1991 27.0714 26.221 27.0003 26.2517C26.7514 26.3526 26.5158 26.5062 26.3203 26.7167C26.2092 26.8264 26.1158 26.958 26.0314 27.1071L25.0358 28.8924L23.1291 32.3095L22.8447 32.8139L22.138 34.0816L21.778 34.7352L21.6224 35.0203C21.4535 35.3098 21.3691 35.6519 21.3691 35.9897V36.0072C21.3691 36.0862 21.3735 36.1608 21.3868 36.2397C21.5068 37.2135 22.3513 37.968 23.3735 37.968H32.1915C33.3026 37.968 34.196 37.0819 34.196 35.9897C34.1915 35.6519 34.1026 35.3186 33.9382 35.0203ZM31.7915 36.5336H23.7602C23.2624 36.5336 22.8535 36.1388 22.8491 35.6519V35.6388C22.8491 35.4809 22.8891 35.3273 22.9647 35.2001V35.1914L23.3469 34.4983L23.4313 34.3448L23.6758 33.9017L24.6358 32.1866L25.2491 31.0856L25.2758 31.0374L26.4447 28.9363L26.9736 27.9844C27.0581 27.844 27.1692 27.7344 27.2892 27.6598C27.4358 27.5677 27.6092 27.5238 27.7825 27.5282C28.0314 27.5326 28.2848 27.6335 28.4581 27.8396C28.4936 27.8835 28.5336 27.9318 28.5603 27.9844L29.5737 29.796L29.7737 30.1557L30.8581 32.1077L32.5782 35.1914V35.2001C32.6537 35.3317 32.6937 35.4852 32.6937 35.6388C32.7026 36.1301 32.2982 36.5336 31.7915 36.5336Z" fill="#FF3B30"/>
<path d="M28.4315 29.5986V33.4675C28.4315 33.8228 28.1426 34.1123 27.7781 34.1123C27.4137 34.1123 27.1248 33.8272 27.1248 33.4675V29.5986C27.1248 29.2433 27.4137 28.9538 27.7781 28.9538C28.1426 28.9538 28.4315 29.2389 28.4315 29.5986Z" fill="#FF3B30"/>
<path d="M27.7781 35.6388C28.1381 35.6388 28.4315 35.3493 28.4315 34.994C28.4315 34.6387 28.1381 34.3492 27.7781 34.3492C27.4181 34.3492 27.1248 34.6387 27.1248 34.994C27.1248 35.3493 27.4181 35.6388 27.7781 35.6388Z" fill="#FF3B30"/>
<path d="M31.0537 10.6667H16.8312C13.2534 10.6667 11.2 12.6932 11.2 16.2243V33.7702C11.2 34.5553 11.64 35.2572 12.3511 35.6081C13.0623 35.959 13.8934 35.8757 14.5201 35.4063L16.5468 33.9105C16.6668 33.8184 16.8312 33.8272 16.9379 33.9325L18.9068 35.8888C19.2979 36.2836 19.8179 36.4941 20.3735 36.4941C20.7335 36.4941 21.0802 36.4064 21.3869 36.2397C21.5557 36.152 21.7158 36.0336 21.858 35.8976L23.4313 34.3448L23.6758 33.9017L24.6358 32.1866C24.138 32.0331 23.6002 32.077 23.1291 32.3095C22.9291 32.4016 22.7424 32.5332 22.578 32.6955L20.5868 34.6606C20.5157 34.7308 20.4224 34.7396 20.3735 34.7396C20.3291 34.7396 20.2313 34.7308 20.1602 34.6606L18.1957 32.7042C17.7912 32.2963 17.2579 32.0989 16.7112 32.0989C16.2757 32.0989 15.8356 32.2393 15.4667 32.5069L13.44 34.0026C13.3245 34.0991 13.2045 34.0728 13.1334 34.0377C13.0756 34.0026 12.9689 33.9325 12.9689 33.7702V16.2243C12.9689 13.6275 14.1867 12.4212 16.8179 12.4212H28.1381C27.9114 12.8555 27.7825 13.36 27.7825 13.8863V27.5282C28.0314 27.5326 28.2848 27.6335 28.4581 27.8397C28.4937 27.8835 28.5337 27.9318 28.5603 27.9844L29.5737 29.796V13.8863C29.5737 13.0792 30.2359 12.4212 31.0537 12.4212C31.5382 12.4212 31.9426 12.0265 31.9426 11.544C31.9426 11.0614 31.5382 10.6667 31.0537 10.6667Z" fill="#FF3B30"/>
<path d="M32.7249 22.9488H28.6715C28.187 22.9488 27.7826 22.5496 27.7826 22.0715V13.8951C27.7826 13.031 28.1248 12.2239 28.7426 11.6141C29.3604 11.0088 30.1782 10.6667 31.0538 10.6667H31.0671C32.5471 10.6798 33.9471 11.2501 35.0138 12.294C36.0805 13.36 36.6628 14.7636 36.6628 16.2243V19.0536C36.6761 21.3828 35.0849 22.9488 32.7293 22.9488H32.7249ZM29.5604 21.1942H32.7249C34.0983 21.1942 34.8938 20.409 34.8938 19.0536V16.2243C34.8938 15.2198 34.4894 14.2592 33.7694 13.5354C33.0449 12.8336 32.0849 12.4344 31.0671 12.4256H31.0538C30.6626 12.4256 30.2849 12.5792 30.0004 12.8599C29.716 13.1406 29.5604 13.5047 29.5604 13.8995V21.1986V21.1942Z" fill="#FF3B30"/>
<path d="M24.1081 20.8985H16.9968C16.5124 20.8985 16.1079 20.4994 16.1079 20.0212C16.1079 19.5431 16.5124 19.144 16.9968 19.144H24.1081C24.5925 19.144 24.997 19.5431 24.997 20.0212C24.997 20.4994 24.5925 20.8985 24.1081 20.8985Z" fill="#FF3B30"/>
<path d="M23.2191 25.5789H17.8857C17.4012 25.5789 16.9968 25.1797 16.9968 24.7016C16.9968 24.2235 17.4012 23.8243 17.8857 23.8243H23.2191C23.7036 23.8243 24.108 24.2235 24.108 24.7016C24.108 25.1797 23.7036 25.5789 23.2191 25.5789Z" fill="#FF3B30"/>
</svg>
