<svg width="25" height="25" viewBox="0 0 25 25" fill="none" xmlns="http://www.w3.org/2000/svg">
<path d="M12.25 23.25C11.47 23.25 10.71 22.85 10.19 22.15L9.18 20.8C8.97 20.52 8.69 20.36 8.39 20.34C8.09 20.33 7.79 20.46 7.55 20.71L6.98 20.2L7.53 20.71C6.09 22.25 4.98 22.13 4.45 21.92C3.91 21.71 3 21.02 3 18.8V7.54C3 3.1 4.28 1.75 8.47 1.75H16.03C20.22 1.75 21.5 3.1 21.5 7.54V18.8C21.5 21.01 20.59 21.7 20.05 21.92C19.52 22.13 18.42 22.25 16.97 20.71C16.73 20.45 16.43 20.31 16.12 20.34C15.82 20.36 15.53 20.52 15.32 20.8L14.31 22.15C13.79 22.85 13.03 23.25 12.25 23.25ZM8.33 18.83C8.37 18.83 8.42 18.83 8.46 18.83C9.2 18.87 9.9 19.26 10.37 19.89L11.38 21.24C11.87 21.89 12.62 21.89 13.11 21.24L14.12 19.89C14.6 19.26 15.29 18.87 16.04 18.83C16.78 18.79 17.52 19.1 18.06 19.68C18.82 20.49 19.31 20.59 19.49 20.52C19.73 20.42 19.99 19.84 19.99 18.8V7.54C19.99 3.93 19.36 3.25 16.02 3.25H8.47C5.13 3.25 4.5 3.93 4.5 7.54V18.8C4.5 19.85 4.76 20.43 5 20.52C5.17 20.59 5.67 20.49 6.43 19.68C6.97 19.13 7.64 18.83 8.33 18.83Z" fill="#8E8E93"/>
<path d="M16.48 12.25H10.98C10.57 12.25 10.23 11.91 10.23 11.5C10.23 11.09 10.57 10.75 10.98 10.75H16.48C16.89 10.75 17.23 11.09 17.23 11.5C17.23 11.91 16.89 12.25 16.48 12.25Z" fill="#8E8E93"/>
<path d="M16.48 8.25H10.98C10.57 8.25 10.23 7.91 10.23 7.5C10.23 7.09 10.57 6.75 10.98 6.75H16.48C16.89 6.75 17.23 7.09 17.23 7.5C17.23 7.91 16.89 8.25 16.48 8.25Z" fill="#8E8E93"/>
<path d="M8.03 8.5C7.48 8.5 7.03 8.05 7.03 7.5C7.03 6.95 7.48 6.5 8.03 6.5C8.58 6.5 9.03 6.95 9.03 7.5C9.03 8.05 8.58 8.5 8.03 8.5Z" fill="#8E8E93"/>
<path d="M8.03 12.5C7.48 12.5 7.03 12.05 7.03 11.5C7.03 10.95 7.48 10.5 8.03 10.5C8.58 10.5 9.03 10.95 9.03 11.5C9.03 12.05 8.58 12.5 8.03 12.5Z" fill="#8E8E93"/>
</svg>
