<svg width="20" height="20" viewBox="0 0 20 20" fill="none" xmlns="http://www.w3.org/2000/svg">
<path d="M14.3309 2.875H14.3307L5.66933 2.875L5.66912 2.875C4.92847 2.87629 4.21852 3.17109 3.6948 3.6948C3.17109 4.21852 2.87629 4.92847 2.875 5.66912V5.66933L2.875 14.3307L2.875 14.3309C2.87629 15.0715 3.17109 15.7815 3.6948 16.3052C4.21852 16.8289 4.92847 17.1237 5.66912 17.125H5.66933H14.3307H14.3309C15.0715 17.1237 15.7815 16.8289 16.3052 16.3052C16.8289 15.7815 17.1237 15.0715 17.125 14.3309V14.3307V5.66933V5.66912C17.1237 4.92847 16.8289 4.21852 16.3052 3.6948C15.7815 3.17109 15.0715 2.87629 14.3309 2.875ZM15.9417 14.3303C15.9405 14.7573 15.7704 15.1665 15.4685 15.4685C15.1665 15.7704 14.7573 15.9405 14.3303 15.9417H5.66967C5.24267 15.9405 4.83348 15.7704 4.53154 15.4685C4.22965 15.1666 4.05952 14.7574 4.05833 14.3305V5.66949C4.05952 5.24256 4.22965 4.83344 4.53154 4.53154C4.83344 4.22965 5.24256 4.05952 5.66949 4.05833H14.3305C14.7574 4.05952 15.1666 4.22965 15.4685 4.53154C15.7704 4.83348 15.9405 5.24267 15.9417 5.66967V14.3303Z" fill="#0072FF" stroke="#0072FF" stroke-width="0.25"/>
<path d="M14.2 10.8087C14.063 10.8087 13.9315 10.8631 13.8346 10.96C13.7377 11.0569 13.6833 11.1883 13.6833 11.3253V12.9546L7.04536 6.31666H8.67465C8.81167 6.31666 8.94309 6.26223 9.03998 6.16533C9.13688 6.06844 9.19131 5.93702 9.19131 5.79999C9.19131 5.66297 9.13688 5.53155 9.03998 5.43466C8.94309 5.33776 8.81167 5.28333 8.67465 5.28333H5.65531C5.55665 5.28333 5.46203 5.32252 5.39227 5.39228C5.32251 5.46205 5.28331 5.55667 5.28331 5.65533V8.67466C5.28331 8.81169 5.33775 8.94311 5.43464 9.04C5.53154 9.13689 5.66295 9.19133 5.79998 9.19133C5.93701 9.19133 6.06842 9.13689 6.16532 9.04C6.26221 8.94311 6.31665 8.81169 6.31665 8.67466V7.04537L12.9546 13.6833H11.3253C11.1883 13.6833 11.0569 13.7378 10.96 13.8347C10.8631 13.9316 10.8086 14.063 10.8086 14.2C10.8086 14.337 10.8631 14.4684 10.96 14.5653C11.0569 14.6622 11.1883 14.7167 11.3253 14.7167H14.3446C14.4433 14.7167 14.5379 14.6775 14.6077 14.6077C14.6775 14.5379 14.7166 14.4433 14.7166 14.3447V11.3253C14.7166 11.1883 14.6622 11.0569 14.5653 10.96C14.4684 10.8631 14.337 10.8087 14.2 10.8087Z" fill="#0072FF" stroke="#0072FF" stroke-width="0.1"/>
</svg>
