<svg width="25" height="25" viewBox="0 0 25 25" fill="none" xmlns="http://www.w3.org/2000/svg">
<path d="M18.7498 8.41002C18.7198 8.41002 18.6998 8.41002 18.6698 8.41002H18.6198C16.7298 8.35002 15.3198 6.89001 15.3198 5.09001C15.3198 3.25001 16.8198 1.76001 18.6498 1.76001C20.4798 1.76001 21.9798 3.26001 21.9798 5.09001C21.9698 6.90001 20.5598 8.36001 18.7598 8.42001C18.7598 8.41001 18.7598 8.41002 18.7498 8.41002ZM18.6498 3.25002C17.6398 3.25002 16.8198 4.07002 16.8198 5.08002C16.8198 6.07002 17.5898 6.87002 18.5798 6.91002C18.5898 6.90002 18.6698 6.90002 18.7598 6.91002C19.7298 6.86002 20.4798 6.06002 20.4898 5.08002C20.4898 4.07002 19.6698 3.25002 18.6498 3.25002Z" fill="#8E8E93"/>
<path d="M18.76 15.78C18.37 15.78 17.98 15.75 17.59 15.68C17.18 15.61 16.91 15.22 16.98 14.81C17.05 14.4 17.44 14.13 17.85 14.2C19.08 14.41 20.38 14.18 21.25 13.6C21.72 13.29 21.97 12.9 21.97 12.51C21.97 12.12 21.71 11.74 21.25 11.43C20.38 10.85 19.06 10.62 17.82 10.84C17.41 10.92 17.02 10.64 16.95 10.23C16.88 9.82002 17.15 9.43003 17.56 9.36003C19.19 9.07003 20.88 9.38002 22.08 10.18C22.96 10.77 23.47 11.61 23.47 12.51C23.47 13.4 22.97 14.25 22.08 14.85C21.17 15.45 19.99 15.78 18.76 15.78Z" fill="#8E8E93"/>
<path d="M6.71998 8.41C6.70998 8.41 6.69998 8.41 6.69998 8.41C4.89998 8.35 3.48998 6.89 3.47998 5.09C3.47998 3.25 4.97998 1.75 6.80998 1.75C8.63998 1.75 10.14 3.25 10.14 5.08C10.14 6.89 8.72998 8.35 6.92998 8.41L6.71998 7.66L6.78998 8.41C6.76998 8.41 6.73998 8.41 6.71998 8.41ZM6.81998 6.91C6.87998 6.91 6.92998 6.91 6.98998 6.92C7.87998 6.88 8.65998 6.08 8.65998 5.09C8.65998 4.08 7.83998 3.25999 6.82998 3.25999C5.81998 3.25999 4.99998 4.08 4.99998 5.09C4.99998 6.07 5.75998 6.86 6.72998 6.92C6.73998 6.91 6.77998 6.91 6.81998 6.91Z" fill="#8E8E93"/>
<path d="M6.71 15.78C5.48 15.78 4.3 15.45 3.39 14.85C2.51 14.26 2 13.41 2 12.51C2 11.62 2.51 10.77 3.39 10.18C4.59 9.38002 6.28 9.07003 7.91 9.36003C8.32 9.43003 8.59 9.82002 8.52 10.23C8.45 10.64 8.06 10.92 7.65 10.84C6.41 10.62 5.1 10.85 4.22 11.43C3.75 11.74 3.5 12.12 3.5 12.51C3.5 12.9 3.76 13.29 4.22 13.6C5.09 14.18 6.39 14.41 7.62 14.2C8.03 14.13 8.42 14.41 8.49 14.81C8.56 15.22 8.29 15.61 7.88 15.68C7.49 15.75 7.1 15.78 6.71 15.78Z" fill="#8E8E93"/>
<path d="M12.7498 15.88C12.7198 15.88 12.6998 15.88 12.6698 15.88H12.6198C10.7298 15.82 9.31982 14.36 9.31982 12.56C9.31982 10.72 10.8198 9.22998 12.6498 9.22998C14.4798 9.22998 15.9798 10.73 15.9798 12.56C15.9698 14.37 14.5598 15.83 12.7598 15.89C12.7598 15.88 12.7598 15.88 12.7498 15.88ZM12.6498 10.72C11.6398 10.72 10.8198 11.54 10.8198 12.55C10.8198 13.54 11.5898 14.34 12.5798 14.38C12.5898 14.37 12.6698 14.37 12.7598 14.38C13.7298 14.33 14.4798 13.53 14.4898 12.55C14.4898 11.55 13.6698 10.72 12.6498 10.72Z" fill="#8E8E93"/>
<path d="M12.7498 23.26C11.5498 23.26 10.3498 22.95 9.41978 22.32C8.53978 21.73 8.02979 20.89 8.02979 19.99C8.02979 19.1 8.52978 18.24 9.41978 17.65C11.2898 16.41 14.2198 16.41 16.0798 17.65C16.9598 18.24 17.4698 19.08 17.4698 19.98C17.4698 20.87 16.9698 21.73 16.0798 22.32C15.1498 22.94 13.9498 23.26 12.7498 23.26ZM10.2498 18.91C9.77979 19.22 9.52979 19.61 9.52979 20C9.52979 20.39 9.78979 20.77 10.2498 21.08C11.5998 21.99 13.8898 21.99 15.2398 21.08C15.7098 20.77 15.9598 20.38 15.9598 19.99C15.9598 19.6 15.6998 19.22 15.2398 18.91C13.8998 18 11.6098 18.01 10.2498 18.91Z" fill="#8E8E93"/>
</svg>
