<svg width="48" height="48" viewBox="0 0 48 48" fill="none" xmlns="http://www.w3.org/2000/svg">
<circle cx="24" cy="24" r="24" fill="#007AFF" fill-opacity="0.1"/>
<path d="M32.4913 29.5219C32.0318 28.402 31.251 27.4472 30.2471 26.778C30.0508 26.6486 29.85 26.5281 29.6403 26.4255C29.5287 26.3675 29.4172 26.314 29.3012 26.2649C28.8372 26.0596 28.3464 25.9124 27.8467 25.8321C27.6727 25.8009 27.4986 25.7785 27.3246 25.7652C27.1685 25.7518 27.0079 25.7473 26.8472 25.7473C25.2276 25.7473 23.6749 26.3898 22.5283 27.5365C21.3816 28.6831 20.7391 30.2403 20.7391 31.8554C20.7391 32.3284 20.7927 32.7969 20.8953 33.2475C20.989 33.6446 21.1228 34.0328 21.2924 34.4031C21.4173 34.6797 21.5645 34.9474 21.7296 35.2017C21.743 35.2196 21.7564 35.233 21.7653 35.2553C21.9259 35.4917 22.0999 35.7193 22.2963 35.929C22.8986 36.6116 23.6571 37.1515 24.5093 37.504C25.6247 37.968 26.8562 38.084 28.043 37.852C29.2298 37.6155 30.314 37.0355 31.1707 36.1788C32.0273 35.3222 32.6073 34.238 32.8438 33.0512C33.0758 31.8688 32.9598 30.6374 32.4913 29.5219ZM30.7156 34.4432C30.2069 35.2062 29.4752 35.8041 28.6319 36.1565C27.7797 36.5046 26.8428 36.5982 25.9415 36.4198C25.0402 36.2368 24.2103 35.7951 23.5634 35.1437C23.4831 35.0634 23.4028 34.9786 23.3314 34.8939C23.1395 34.6752 22.97 34.4388 22.8272 34.1889C22.6577 33.8989 22.5238 33.591 22.4257 33.2698C22.3677 33.1047 22.323 32.9352 22.2918 32.7656C22.2516 32.5871 22.2293 32.4042 22.2204 32.2257C22.1535 31.4985 22.2695 30.7578 22.5506 30.0797C22.9075 29.2319 23.5009 28.5047 24.2684 27.9916C25.0313 27.4829 25.9281 27.2108 26.8472 27.2108C27.0034 27.2108 27.1551 27.2197 27.3023 27.2331C27.4853 27.2509 27.6682 27.2822 27.8467 27.3223C28.3196 27.4205 28.7702 27.5945 29.1807 27.8354C29.3413 27.9291 29.493 28.0317 29.6403 28.1433C29.8143 28.2727 29.9794 28.4154 30.1355 28.5716C31.01 29.4461 31.4964 30.6285 31.4964 31.8554C31.4964 32.779 31.2242 33.6758 30.7156 34.4432Z" fill="#007AFF"/>
<path d="M26.2227 29.9458V31.5297H24.844C24.4692 31.5297 24.1613 31.8777 24.1613 32.3061C24.1613 32.7344 24.4647 33.0824 24.844 33.0824H26.9053C27.2801 33.0824 27.588 32.7344 27.588 32.3061V29.9458C27.588 29.5175 27.2846 29.1695 26.9053 29.1695C26.5261 29.1695 26.2227 29.5175 26.2227 29.9458Z" fill="#007AFF"/>
<path d="M32.8082 23.1595H28.7391C28.2528 23.1595 27.8467 22.7535 27.8467 22.2672V13.9505C27.8467 13.0715 28.1903 12.2506 28.8105 11.6304C29.4262 11.0147 30.2472 10.6667 31.1306 10.6667H31.144C32.6297 10.68 34.0352 11.2601 35.106 12.322C36.1768 13.4062 36.7613 14.8339 36.7613 16.3197V19.1975C36.7747 21.5667 35.1774 23.1595 32.8126 23.1595H32.8082ZM29.6314 21.3748H32.8082C34.1869 21.3748 34.9855 20.5762 34.9855 19.1975V16.3197C34.9855 15.2979 34.5795 14.3208 33.8567 13.5846C33.1294 12.8708 32.1657 12.4647 31.144 12.4558H31.1306C30.7379 12.4558 30.3587 12.612 30.0731 12.8975C29.7876 13.1831 29.6314 13.5534 29.6314 13.955V21.3793V21.3748Z" fill="#007AFF"/>
<path d="M31.1306 10.6667H16.853C13.2569 10.6667 11.2 12.728 11.2 16.3197V34.1666C11.2 34.9653 11.6417 35.6791 12.3556 36.0361C13.0695 36.393 13.8993 36.3082 14.5329 35.8308L16.5675 34.3094C16.6835 34.2157 16.853 34.2246 16.9601 34.3317L18.9322 36.3216C19.3248 36.7232 19.8513 36.9373 20.409 36.9373C20.9667 36.9373 21.4932 36.7232 21.8948 36.3305L23.3314 34.8939C23.1396 34.6752 22.97 34.4388 22.8273 34.1889C22.6577 33.8989 22.5239 33.591 22.4257 33.2698L20.6232 35.0723C20.5518 35.1437 20.4581 35.1527 20.409 35.1527C20.3599 35.1527 20.2662 35.1437 20.1948 35.0723L18.2183 33.0824C17.8167 32.6675 17.2813 32.4667 16.7325 32.4667C16.2908 32.4667 15.8536 32.6095 15.4833 32.8816L13.4487 34.4031C13.3282 34.5012 13.2122 34.4745 13.1409 34.4388C13.0784 34.4031 12.9713 34.3317 12.9713 34.1666V16.3197C12.9713 13.6783 14.1983 12.4514 16.8396 12.4514H28.2037C27.9761 12.8931 27.8467 13.4062 27.8467 13.9416V27.3223C28.3197 27.4205 28.7703 27.5945 29.1808 27.8354C29.3414 27.9291 29.4931 28.0317 29.6403 28.1433V13.9416C29.6403 13.1206 30.3096 12.4514 31.1306 12.4514C31.6169 12.4514 32.0229 12.0498 32.0229 11.559C32.0229 11.0682 31.6169 10.6667 31.1306 10.6667Z" fill="#007AFF"/>
<path d="M23.9784 20.7814H16.8396C16.3533 20.7814 15.9472 20.3754 15.9472 19.8891C15.9472 19.4027 16.3533 18.9967 16.8396 18.9967H23.9784C24.4647 18.9967 24.8707 19.4027 24.8707 19.8891C24.8707 20.3754 24.4647 20.7814 23.9784 20.7814Z" fill="#007AFF"/>
<path d="M23.086 25.5421H17.7319C17.2456 25.5421 16.8396 25.1361 16.8396 24.6497C16.8396 24.1634 17.2456 23.7574 17.7319 23.7574H23.086C23.5723 23.7574 23.9784 24.1634 23.9784 24.6497C23.9784 25.1361 23.5723 25.5421 23.086 25.5421Z" fill="#007AFF"/>
</svg>
