<svg width="48" height="48" viewBox="0 0 48 48" fill="none" xmlns="http://www.w3.org/2000/svg">
<circle cx="24" cy="24" r="24" fill="#AF52DE" fill-opacity="0.1"/>
<path d="M37.6987 29.366C37.3007 28.3489 36.5932 27.5088 35.6646 26.8897C35.5319 26.8013 35.3993 26.7571 35.3108 26.6686C35.1339 26.5802 35.0013 26.4917 34.8244 26.4475C34.3822 26.2706 33.94 26.138 33.4978 26.0495C33.3652 26.0495 33.1883 26.0053 33.0556 26.0053C32.923 26.0053 32.7461 26.0053 32.6135 26.0053C31.1542 26.0053 29.7392 26.5802 28.7222 27.5972C27.7051 28.6143 27.1303 29.9851 27.1303 31.4443C27.1303 31.8865 27.1745 32.2845 27.2629 32.6824C27.3514 33.0804 27.484 33.4784 27.6609 33.8321C27.7493 34.0532 27.882 34.2301 28.0147 34.4512C28.0147 34.4512 28.0147 34.4954 28.0589 34.4954C28.3242 34.8934 28.6337 35.2471 29.0317 35.5567C29.4739 35.9547 30.0045 36.2642 30.5351 36.4853C31.5522 36.8833 32.6577 37.0159 33.7189 36.7948C34.7802 36.5737 35.753 36.0431 36.549 35.2914C37.3007 34.5396 37.8313 33.5668 38.0524 32.4613C38.2293 31.4885 38.1409 30.383 37.6987 29.366ZM35.9741 33.6995C35.5319 34.3628 34.8686 34.8934 34.1611 35.2029C33.4094 35.5125 32.6135 35.6009 31.8175 35.424C31.5522 35.3798 31.2869 35.2914 31.0658 35.2029C30.5794 34.9818 30.1372 34.7165 29.7834 34.3185C29.6065 34.1417 29.4297 33.9648 29.297 33.7437C29.2528 33.6553 29.2086 33.5668 29.1201 33.4784C28.899 33.0804 28.7222 32.6824 28.6337 32.2402C28.5895 32.0634 28.5895 31.9307 28.5895 31.7538C28.5453 31.1348 28.6337 30.4715 28.899 29.8966C29.2086 29.1449 29.7392 28.5258 30.4025 28.0836C31.0658 27.6414 31.8617 27.4203 32.6577 27.4203C32.7903 27.4203 32.923 27.4203 33.0556 27.4203C33.2325 27.4203 33.3652 27.4646 33.5421 27.5088C33.94 27.5972 34.338 27.7299 34.6918 27.951C34.9128 28.0836 35.1339 28.2163 35.3108 28.3932C35.3993 28.4374 35.4435 28.5258 35.4877 28.57C36.2394 29.3218 36.6816 30.3388 36.6816 31.4443C36.6816 32.2402 36.4605 33.0362 35.9741 33.6995Z" fill="#AF52DE"/>
<path d="M32.0828 29.7197V31.1348H30.8447C30.4909 31.1348 30.2256 31.4443 30.2256 31.8423C30.2256 32.2402 30.4909 32.5498 30.8447 32.5498H32.7019C33.0556 32.5498 33.3209 32.2402 33.3209 31.8423V29.7197C33.3209 29.3218 33.0556 29.0122 32.7019 29.0122C32.3481 29.0122 32.0828 29.366 32.0828 29.7197Z" fill="#AF52DE"/>
<path d="M27.1302 23.7944H18.6401C18.1537 23.7944 17.7115 23.3964 17.7115 22.8658C17.7115 22.3793 18.1095 21.9372 18.6401 21.9372H27.1302C27.6166 21.9372 28.0588 22.3351 28.0588 22.8658C28.0146 23.3964 27.6166 23.7944 27.1302 23.7944Z" fill="#AF52DE"/>
<path d="M23.9464 28.6585H18.6401C18.1537 28.6585 17.7115 28.2605 17.7115 27.7299C17.7115 27.1992 18.1095 26.8013 18.6401 26.8013H23.9464C24.4328 26.8013 24.875 27.1992 24.875 27.7299C24.875 28.2605 24.4328 28.6585 23.9464 28.6585Z" fill="#AF52DE"/>
<path d="M25.8921 16.2771H21.0279C19.8782 16.2771 17.7115 16.2771 17.7115 12.9607C17.7115 9.6 19.8782 9.6 21.0722 9.6H25.9363C27.086 9.6 29.2527 9.6 29.2527 12.9164C29.2527 14.1104 29.2527 16.2771 25.8921 16.2771ZM21.0722 11.413C19.8782 11.413 19.5687 11.413 19.5687 12.9164C19.5687 14.4199 19.8782 14.4199 21.0722 14.4199H25.9363C27.4397 14.4199 27.4397 14.1104 27.4397 12.9164C27.4397 11.413 27.1302 11.413 25.9363 11.413H21.0722Z" fill="#AF52DE"/>
<path d="M29.7834 34.3186C30.1814 34.6723 30.6236 34.9818 31.0658 35.2029C30.4467 35.3798 29.7834 35.5125 29.0317 35.6009C28.4568 35.6451 27.7935 35.6893 27.1303 35.6893H19.8341C13.0243 35.6893 11.6535 32.5498 11.6535 27.5088V20.2126C11.6535 14.6852 13.6434 12.3416 18.5959 12.0763C19.0824 12.0763 19.5246 12.43 19.5688 12.9607C19.5688 13.4471 19.215 13.8893 18.6844 13.8893C15.2353 14.0661 13.4665 15.0832 13.4665 20.2126V27.5088C13.4665 32.0191 14.3509 33.8764 19.8341 33.8764H27.1303C27.3071 33.8764 27.5282 33.8764 27.7051 33.8764C28.28 33.8764 28.8106 33.8321 29.297 33.7437C29.4297 33.9206 29.6065 34.1417 29.7834 34.3186Z" fill="#AF52DE"/>
<path d="M35.3108 20.2126V27.5088C35.3108 27.8183 35.3108 28.1278 35.3108 28.4374C35.1339 28.2605 34.9128 28.1278 34.6917 27.9952C34.3379 27.7741 33.94 27.6414 33.542 27.553V20.2126C33.542 15.0832 31.7732 14.0661 28.3241 13.845C27.8377 13.8008 27.4397 13.4028 27.4397 12.8722C27.484 12.3858 27.8819 11.9878 28.4126 11.9878C33.3209 12.3416 35.3108 14.6852 35.3108 20.2126Z" fill="#AF52DE"/>
</svg>
