<svg width="48" height="48" viewBox="0 0 48 48" fill="none" xmlns="http://www.w3.org/2000/svg">
<circle cx="24" cy="24" r="24" fill="#FF9500" fill-opacity="0.1"/>
<path d="M16.5175 37.5539C16.3904 37.5539 16.2506 37.5412 16.1363 37.5285L13.379 37.1473C12.0575 36.9694 10.8631 35.7877 10.6598 34.4409L10.2786 31.6582C10.1516 30.7687 10.5327 29.6124 11.1681 28.9644L16.7462 23.3863C15.844 19.7777 16.886 15.9657 19.5416 13.3355C23.6585 9.23132 30.3548 9.21862 34.4844 13.3355C36.4793 15.3304 37.572 17.986 37.572 20.8069C37.572 23.6277 36.4793 26.2833 34.4844 28.2782C31.816 30.9212 28.0168 31.9631 24.4336 31.0482L18.8427 36.6264C18.3091 37.1854 17.3561 37.5539 16.5175 37.5539ZM27.0003 12.1538C24.7766 12.1538 22.5657 12.9924 20.8758 14.6824C18.5886 16.9568 17.7627 20.2859 18.7157 23.3863C18.8173 23.7294 18.7284 24.0851 18.4743 24.3393L12.5022 30.3113C12.2862 30.5273 12.1083 31.0864 12.1465 31.3786L12.5277 34.1613C12.6039 34.6442 13.1249 35.1905 13.6077 35.2541L16.3777 35.6353C16.6827 35.6861 17.2417 35.5082 17.4577 35.2922L23.4552 29.3075C23.7093 29.0533 24.0778 28.9771 24.4082 29.0788C27.4704 30.0444 30.8122 29.2185 33.0993 26.9314C34.7258 25.3049 35.6279 23.1194 35.6279 20.8069C35.6279 18.4816 34.7258 16.3088 33.0993 14.6824C31.4475 13.0051 29.2239 12.1538 27.0003 12.1538Z" fill="#FF9500"/>
<path d="M20.3421 34.7458C20.1006 34.7458 19.8592 34.6569 19.6686 34.4663L16.7461 31.5438C16.3777 31.1753 16.3777 30.5654 16.7461 30.1969C17.1146 29.8284 17.7245 29.8284 18.093 30.1969L21.0155 33.1194C21.384 33.4879 21.384 34.0978 21.0155 34.4663C20.8249 34.6569 20.5835 34.7458 20.3421 34.7458Z" fill="#FF9500"/>
<path d="M27.0894 23.5768C25.5138 23.5768 24.2304 22.2935 24.2304 20.7179C24.2304 19.1423 25.5138 17.859 27.0894 17.859C28.665 17.859 29.9483 19.1423 29.9483 20.7179C29.9483 22.2935 28.665 23.5768 27.0894 23.5768ZM27.0894 19.7649C26.5684 19.7649 26.1364 20.1969 26.1364 20.7179C26.1364 21.2389 26.5684 21.6709 27.0894 21.6709C27.6103 21.6709 28.0423 21.2389 28.0423 20.7179C28.0423 20.1969 27.6103 19.7649 27.0894 19.7649Z" fill="#FF9500"/>
</svg>
